<svg id="visual" viewBox="0 0 960 540" preserveAspectRatio="none" width="960" height="540"
    xmlns="http://www.w3.org/2000/svg"
    xmlns:xlink="http://www.w3.org/1999/xlink" version="1.1">
    <path d="M0 270L22.8 271C45.7 272 91.3 274 137 290.2C182.7 306.3 228.3 336.7 274 352.7C319.7 368.7 365.3 370.3 411.2 355.3C457 340.3 503 308.7 548.8 301.2C594.7 293.7 640.3 310.3 686 326C731.7 341.7 777.3 356.3 823 359.3C868.7 362.3 914.3 353.7 937.2 349.3L960 345L960 541L937.2 541C914.3 541 868.7 541 823 541C777.3 541 731.7 541 686 541C640.3 541 594.7 541 548.8 541C503 541 457 541 411.2 541C365.3 541 319.7 541 274 541C228.3 541 182.7 541 137 541C91.3 541 45.7 541 22.8 541L0 541Z" fill="#fa7268"></path>
    <path d="M0 323L22.8 327.5C45.7 332 91.3 341 137 352.5C182.7 364 228.3 378 274 383.5C319.7 389 365.3 386 411.2 376.5C457 367 503 351 548.8 352C594.7 353 640.3 371 686 378.5C731.7 386 777.3 383 823 377.5C868.7 372 914.3 364 937.2 360L960 356L960 541L937.2 541C914.3 541 868.7 541 823 541C777.3 541 731.7 541 686 541C640.3 541 594.7 541 548.8 541C503 541 457 541 411.2 541C365.3 541 319.7 541 274 541C228.3 541 182.7 541 137 541C91.3 541 45.7 541 22.8 541L0 541Z" fill="#ef5f67"></path>
    <path d="M0 389L22.8 388.8C45.7 388.7 91.3 388.3 137 387.3C182.7 386.3 228.3 384.7 274 381.3C319.7 378 365.3 373 411.2 373C457 373 503 378 548.8 385.5C594.7 393 640.3 403 686 402.2C731.7 401.3 777.3 389.7 823 392.3C868.7 395 914.3 412 937.2 420.5L960 429L960 541L937.2 541C914.3 541 868.7 541 823 541C777.3 541 731.7 541 686 541C640.3 541 594.7 541 548.8 541C503 541 457 541 411.2 541C365.3 541 319.7 541 274 541C228.3 541 182.7 541 137 541C91.3 541 45.7 541 22.8 541L0 541Z" fill="#e34c67"></path>
    <path d="M0 432L22.8 430C45.7 428 91.3 424 137 426.5C182.7 429 228.3 438 274 446.8C319.7 455.7 365.3 464.3 411.2 462.5C457 460.7 503 448.3 548.8 438.7C594.7 429 640.3 422 686 426.3C731.7 430.7 777.3 446.3 823 448.5C868.7 450.7 914.3 439.3 937.2 433.7L960 428L960 541L937.2 541C914.3 541 868.7 541 823 541C777.3 541 731.7 541 686 541C640.3 541 594.7 541 548.8 541C503 541 457 541 411.2 541C365.3 541 319.7 541 274 541C228.3 541 182.7 541 137 541C91.3 541 45.7 541 22.8 541L0 541Z" fill="#d53867"></path>
    <path d="M0 462L22.8 465.2C45.7 468.3 91.3 474.7 137 478.5C182.7 482.3 228.3 483.7 274 487.2C319.7 490.7 365.3 496.3 411.2 492C457 487.7 503 473.3 548.8 470.3C594.7 467.3 640.3 475.7 686 477.2C731.7 478.7 777.3 473.3 823 475C868.7 476.7 914.3 485.3 937.2 489.7L960 494L960 541L937.2 541C914.3 541 868.7 541 823 541C777.3 541 731.7 541 686 541C640.3 541 594.7 541 548.8 541C503 541 457 541 411.2 541C365.3 541 319.7 541 274 541C228.3 541 182.7 541 137 541C91.3 541 45.7 541 22.8 541L0 541Z" fill="#c62368"></path>
</svg>