<svg id="visual" viewBox="0 0 960 540" width="960" height="540" xmlns="http://www.w3.org/2000/svg" xmlns:xlink="http://www.w3.org/1999/xlink" version="1.1"><path d="M0 359L22.8 359.8C45.7 360.7 91.3 362.3 137 373.2C182.7 384 228.3 404 274 414.7C319.7 425.3 365.3 426.7 411.2 416.8C457 407 503 386 548.8 381C594.7 376 640.3 387 686 397.3C731.7 407.7 777.3 417.3 823 419.3C868.7 421.3 914.3 415.7 937.2 412.8L960 410L960 541L937.2 541C914.3 541 868.7 541 823 541C777.3 541 731.7 541 686 541C640.3 541 594.7 541 548.8 541C503 541 457 541 411.2 541C365.3 541 319.7 541 274 541C228.3 541 182.7 541 137 541C91.3 541 45.7 541 22.8 541L0 541Z" fill="#fa7268"></path><path d="M0 395L22.8 398C45.7 401 91.3 407 137 414.7C182.7 422.3 228.3 431.7 274 435.3C319.7 439 365.3 437 411.2 430.7C457 424.3 503 413.7 548.8 414.3C594.7 415 640.3 427 686 432C731.7 437 777.3 435 823 431.3C868.7 427.7 914.3 422.3 937.2 419.7L960 417L960 541L937.2 541C914.3 541 868.7 541 823 541C777.3 541 731.7 541 686 541C640.3 541 594.7 541 548.8 541C503 541 457 541 411.2 541C365.3 541 319.7 541 274 541C228.3 541 182.7 541 137 541C91.3 541 45.7 541 22.8 541L0 541Z" fill="#ef5f67"></path><path d="M0 439L22.8 439C45.7 439 91.3 439 137 438.3C182.7 437.7 228.3 436.3 274 434C319.7 431.7 365.3 428.3 411.2 428.3C457 428.3 503 431.7 548.8 436.7C594.7 441.7 640.3 448.3 686 447.8C731.7 447.3 777.3 439.7 823 441.5C868.7 443.3 914.3 454.7 937.2 460.3L960 466L960 541L937.2 541C914.3 541 868.7 541 823 541C777.3 541 731.7 541 686 541C640.3 541 594.7 541 548.8 541C503 541 457 541 411.2 541C365.3 541 319.7 541 274 541C228.3 541 182.7 541 137 541C91.3 541 45.7 541 22.8 541L0 541Z" fill="#e34c67"></path><path d="M0 468L22.8 466.7C45.7 465.3 91.3 462.7 137 464.3C182.7 466 228.3 472 274 477.8C319.7 483.7 365.3 489.3 411.2 488C457 486.7 503 478.3 548.8 471.8C594.7 465.3 640.3 460.7 686 463.7C731.7 466.7 777.3 477.3 823 478.8C868.7 480.3 914.3 472.7 937.2 468.8L960 465L960 541L937.2 541C914.3 541 868.7 541 823 541C777.3 541 731.7 541 686 541C640.3 541 594.7 541 548.8 541C503 541 457 541 411.2 541C365.3 541 319.7 541 274 541C228.3 541 182.7 541 137 541C91.3 541 45.7 541 22.8 541L0 541Z" fill="#d53867"></path><path d="M0 488L22.8 490C45.7 492 91.3 496 137 498.5C182.7 501 228.3 502 274 504.3C319.7 506.7 365.3 510.3 411.2 507.5C457 504.7 503 495.3 548.8 493.5C594.7 491.7 640.3 497.3 686 498.2C731.7 499 777.3 495 823 496C868.7 497 914.3 503 937.2 506L960 509L960 541L937.2 541C914.3 541 868.7 541 823 541C777.3 541 731.7 541 686 541C640.3 541 594.7 541 548.8 541C503 541 457 541 411.2 541C365.3 541 319.7 541 274 541C228.3 541 182.7 541 137 541C91.3 541 45.7 541 22.8 541L0 541Z" fill="#c62368"></path></svg>