<svg id="visual" viewBox="0 0 960 540" preserveAspectRatio="none" width="960" height="540"
    xmlns="http://www.w3.org/2000/svg"
    xmlns:xlink="http://www.w3.org/1999/xlink" version="1.1">
    <path d="M0 205L22.8 201.5C45.7 198 91.3 191 137 191.5C182.7 192 228.3 200 274 213.7C319.7 227.3 365.3 246.7 411.2 241.5C457 236.3 503 206.7 548.8 196.3C594.7 186 640.3 195 686 206.3C731.7 217.7 777.3 231.3 823 240.5C868.7 249.7 914.3 254.3 937.2 256.7L960 259L960 0L937.2 0C914.3 0 868.7 0 823 0C777.3 0 731.7 0 686 0C640.3 0 594.7 0 548.8 0C503 0 457 0 411.2 0C365.3 0 319.7 0 274 0C228.3 0 182.7 0 137 0C91.3 0 45.7 0 22.8 0L0 0Z" fill="#fa7268"></path>
    <path d="M0 143L22.8 140.7C45.7 138.3 91.3 133.7 137 141.3C182.7 149 228.3 169 274 178C319.7 187 365.3 185 411.2 176C457 167 503 151 548.8 148.7C594.7 146.3 640.3 157.7 686 158.2C731.7 158.7 777.3 148.3 823 142.5C868.7 136.7 914.3 135.3 937.2 134.7L960 134L960 0L937.2 0C914.3 0 868.7 0 823 0C777.3 0 731.7 0 686 0C640.3 0 594.7 0 548.8 0C503 0 457 0 411.2 0C365.3 0 319.7 0 274 0C228.3 0 182.7 0 137 0C91.3 0 45.7 0 22.8 0L0 0Z" fill="#ef5f67"></path>
    <path d="M0 132L22.8 133.3C45.7 134.7 91.3 137.3 137 135C182.7 132.7 228.3 125.3 274 123.5C319.7 121.7 365.3 125.3 411.2 123.3C457 121.3 503 113.7 548.8 118.3C594.7 123 640.3 140 686 147.5C731.7 155 777.3 153 823 143.3C868.7 133.7 914.3 116.3 937.2 107.7L960 99L960 0L937.2 0C914.3 0 868.7 0 823 0C777.3 0 731.7 0 686 0C640.3 0 594.7 0 548.8 0C503 0 457 0 411.2 0C365.3 0 319.7 0 274 0C228.3 0 182.7 0 137 0C91.3 0 45.7 0 22.8 0L0 0Z" fill="#e34c67"></path>
    <path d="M0 98L22.8 98.5C45.7 99 91.3 100 137 104.5C182.7 109 228.3 117 274 120.7C319.7 124.3 365.3 123.7 411.2 118.8C457 114 503 105 548.8 104.3C594.7 103.7 640.3 111.3 686 110.2C731.7 109 777.3 99 823 90.3C868.7 81.7 914.3 74.3 937.2 70.7L960 67L960 0L937.2 0C914.3 0 868.7 0 823 0C777.3 0 731.7 0 686 0C640.3 0 594.7 0 548.8 0C503 0 457 0 411.2 0C365.3 0 319.7 0 274 0C228.3 0 182.7 0 137 0C91.3 0 45.7 0 22.8 0L0 0Z" fill="#d53867"></path>
    <path d="M0 56L22.8 59.5C45.7 63 91.3 70 137 67.5C182.7 65 228.3 53 274 52.7C319.7 52.3 365.3 63.7 411.2 68C457 72.3 503 69.7 548.8 70.2C594.7 70.7 640.3 74.3 686 75.8C731.7 77.3 777.3 76.7 823 76.3C868.7 76 914.3 76 937.2 76L960 76L960 0L937.2 0C914.3 0 868.7 0 823 0C777.3 0 731.7 0 686 0C640.3 0 594.7 0 548.8 0C503 0 457 0 411.2 0C365.3 0 319.7 0 274 0C228.3 0 182.7 0 137 0C91.3 0 45.7 0 22.8 0L0 0Z" fill="#c62368"></path>
</svg>