<svg width="128" height="128" viewBox="0 0 128 128" fill="none" xmlns="http://www.w3.org/2000/svg">
<rect y="128" width="128" height="128" rx="15" transform="rotate(-90 0 128)" fill="#FF677E"/>
<path d="M44.944 84.728C42.2933 84.728 39.8013 84.2053 37.468 83.16C35.1347 82.096 33.0813 80.6307 31.308 78.764C29.5533 76.8973 28.172 74.7413 27.164 72.296C26.1747 69.832 25.68 67.2 25.68 64.4C25.68 61.5813 26.1747 58.9493 27.164 56.504C28.172 54.04 29.5533 51.884 31.308 50.036C33.0813 48.1693 35.1347 46.7133 37.468 45.668C39.8013 44.604 42.2933 44.072 44.944 44.072C48.1173 44.072 51.0387 44.8093 53.708 46.284C56.3773 47.74 58.5893 49.6907 60.344 52.136L54.24 55.412C53.1387 54.0493 51.7667 52.9573 50.124 52.136C48.5 51.3147 46.7733 50.904 44.944 50.904C43.2267 50.904 41.612 51.2587 40.1 51.968C38.588 52.6587 37.2627 53.6293 36.124 54.88C34.9853 56.112 34.0987 57.5493 33.464 59.192C32.8293 60.816 32.512 62.552 32.512 64.4C32.512 66.2667 32.8293 68.012 33.464 69.636C34.1173 71.26 35.0133 72.6973 36.152 73.948C37.2907 75.18 38.6067 76.1507 40.1 76.86C41.612 77.5507 43.2267 77.896 44.944 77.896C46.8107 77.896 48.5467 77.4853 50.152 76.664C51.776 75.824 53.1387 74.7227 54.24 73.36L60.344 76.664C58.5893 79.0907 56.3773 81.0413 53.708 82.516C51.0387 83.9907 48.1173 84.728 44.944 84.728ZM80.8641 84.728C78.2134 84.728 75.7214 84.2053 73.3881 83.16C71.0547 82.096 69.0014 80.6307 67.2281 78.764C65.4547 76.8973 64.0641 74.7413 63.0561 72.296C62.0481 69.832 61.5441 67.2 61.5441 64.4C61.5441 61.6 62.0481 58.9773 63.0561 56.532C64.0641 54.068 65.4547 51.9027 67.2281 50.036C69.0014 48.1693 71.0547 46.7133 73.3881 45.668C75.7214 44.604 78.2134 44.072 80.8641 44.072C83.5334 44.072 86.0347 44.604 88.3681 45.668C90.7014 46.7133 92.7547 48.1693 94.5281 50.036C96.3014 51.9027 97.6827 54.068 98.6721 56.532C99.6801 58.9773 100.184 61.6 100.184 64.4C100.184 67.2 99.6801 69.832 98.6721 72.296C97.6827 74.7413 96.3014 76.8973 94.5281 78.764C92.7547 80.6307 90.7014 82.096 88.3681 83.16C86.0347 84.2053 83.5334 84.728 80.8641 84.728ZM80.8641 77.896C82.5814 77.896 84.1961 77.5413 85.7081 76.832C87.2201 76.1227 88.5454 75.152 89.6841 73.92C90.8414 72.6693 91.7374 71.232 92.3721 69.608C93.0254 67.984 93.3521 66.248 93.3521 64.4C93.3521 62.552 93.0254 60.816 92.3721 59.192C91.7187 57.5493 90.8134 56.112 89.6561 54.88C88.5174 53.648 87.1921 52.6773 85.6801 51.968C84.1867 51.2587 82.5814 50.904 80.8641 50.904C79.1467 50.904 77.5321 51.2587 76.0201 51.968C74.5081 52.6773 73.1734 53.6573 72.0161 54.908C70.8774 56.14 69.9814 57.568 69.3281 59.192C68.6934 60.816 68.3761 62.552 68.3761 64.4C68.3761 66.2667 68.7027 68.012 69.3561 69.636C70.0094 71.26 70.9054 72.6973 72.0441 73.948C73.2014 75.18 74.5267 76.1507 76.0201 76.86C77.5321 77.5507 79.1467 77.896 80.8641 77.896Z" fill="white"/>
</svg>
