<svg width="128" height="128" viewBox="0 0 128 128" fill="none" xmlns="http://www.w3.org/2000/svg">
<rect width="128" height="128" transform="translate(0 128) rotate(-90)" fill="white"/>
<rect x="20" y="40" width="48" height="48" fill="#FF677E"/>
<path d="M49.84 70.184L53.36 72.088C52.624 73.0907 51.7013 73.896 50.592 74.504C49.4827 75.112 48.272 75.416 46.96 75.416C45.488 75.416 44.144 75.0373 42.928 74.28C41.7227 73.5227 40.7573 72.5093 40.032 71.24C39.3173 69.96 38.96 68.5467 38.96 67C38.96 65.8267 39.168 64.7333 39.584 63.72C40 62.696 40.5707 61.8 41.296 61.032C42.032 60.2533 42.8853 59.6453 43.856 59.208C44.8267 58.7707 45.8613 58.552 46.96 58.552C48.272 58.552 49.4827 58.856 50.592 59.464C51.7013 60.072 52.624 60.888 53.36 61.912L49.84 63.8C49.4667 63.3733 49.024 63.0427 48.512 62.808C48.0107 62.5733 47.4933 62.456 46.96 62.456C46.192 62.456 45.4987 62.6693 44.88 63.096C44.2613 63.512 43.7707 64.0667 43.408 64.76C43.0453 65.4427 42.864 66.1893 42.864 67C42.864 67.8 43.0453 68.5467 43.408 69.24C43.7707 69.9227 44.2613 70.472 44.88 70.888C45.4987 71.304 46.192 71.512 46.96 71.512C47.5147 71.512 48.0427 71.3947 48.544 71.16C49.0453 70.9147 49.4773 70.5893 49.84 70.184ZM61.3525 75.416C59.8805 75.416 58.5365 75.0373 57.3205 74.28C56.1152 73.5227 55.1498 72.5093 54.4245 71.24C53.7098 69.96 53.3525 68.5467 53.3525 67C53.3525 65.8267 53.5605 64.7333 53.9765 63.72C54.3925 62.696 54.9632 61.8 55.6885 61.032C56.4245 60.2533 57.2778 59.6453 58.2485 59.208C59.2192 58.7707 60.2538 58.552 61.3525 58.552C62.8245 58.552 64.1632 58.9307 65.3685 59.688C66.5845 60.4453 67.5498 61.464 68.2645 62.744C68.9898 64.024 69.3525 65.4427 69.3525 67C69.3525 68.1627 69.1445 69.2507 68.7285 70.264C68.3125 71.2773 67.7365 72.1733 67.0005 72.952C66.2752 73.72 65.4272 74.3227 64.4565 74.76C63.4965 75.1973 62.4618 75.416 61.3525 75.416ZM61.3525 71.512C62.1312 71.512 62.8298 71.304 63.4485 70.888C64.0672 70.472 64.5525 69.9227 64.9045 69.24C65.2672 68.5573 65.4485 67.8107 65.4485 67C65.4485 66.168 65.2618 65.4107 64.8885 64.728C64.5258 64.0347 64.0298 63.4853 63.4005 63.08C62.7818 62.664 62.0992 62.456 61.3525 62.456C60.5845 62.456 59.8912 62.664 59.2725 63.08C58.6538 63.496 58.1632 64.0507 57.8005 64.744C57.4378 65.4373 57.2565 66.1893 57.2565 67C57.2565 67.8427 57.4432 68.6053 57.8165 69.288C58.1898 69.9707 58.6858 70.5147 59.3045 70.92C59.9338 71.3147 60.6165 71.512 61.3525 71.512Z" fill="#FF677E"/>
<path d="M49.84 70.184L53.36 72.088C52.624 73.0907 51.7013 73.896 50.592 74.504C49.4827 75.112 48.272 75.416 46.96 75.416C45.488 75.416 44.144 75.0373 42.928 74.28C41.7227 73.5227 40.7573 72.5093 40.032 71.24C39.3173 69.96 38.96 68.5467 38.96 67C38.96 65.8267 39.168 64.7333 39.584 63.72C40 62.696 40.5707 61.8 41.296 61.032C42.032 60.2533 42.8853 59.6453 43.856 59.208C44.8267 58.7707 45.8613 58.552 46.96 58.552C48.272 58.552 49.4827 58.856 50.592 59.464C51.7013 60.072 52.624 60.888 53.36 61.912L49.84 63.8C49.4667 63.3733 49.024 63.0427 48.512 62.808C48.0107 62.5733 47.4933 62.456 46.96 62.456C46.192 62.456 45.4987 62.6693 44.88 63.096C44.2613 63.512 43.7707 64.0667 43.408 64.76C43.0453 65.4427 42.864 66.1893 42.864 67C42.864 67.8 43.0453 68.5467 43.408 69.24C43.7707 69.9227 44.2613 70.472 44.88 70.888C45.4987 71.304 46.192 71.512 46.96 71.512C47.5147 71.512 48.0427 71.3947 48.544 71.16C49.0453 70.9147 49.4773 70.5893 49.84 70.184ZM61.3525 75.416C59.8805 75.416 58.5365 75.0373 57.3205 74.28C56.1152 73.5227 55.1498 72.5093 54.4245 71.24C53.7098 69.96 53.3525 68.5467 53.3525 67C53.3525 65.8267 53.5605 64.7333 53.9765 63.72C54.3925 62.696 54.9632 61.8 55.6885 61.032C56.4245 60.2533 57.2778 59.6453 58.2485 59.208C59.2192 58.7707 60.2538 58.552 61.3525 58.552C62.8245 58.552 64.1632 58.9307 65.3685 59.688C66.5845 60.4453 67.5498 61.464 68.2645 62.744C68.9898 64.024 69.3525 65.4427 69.3525 67C69.3525 68.1627 69.1445 69.2507 68.7285 70.264C68.3125 71.2773 67.7365 72.1733 67.0005 72.952C66.2752 73.72 65.4272 74.3227 64.4565 74.76C63.4965 75.1973 62.4618 75.416 61.3525 75.416ZM61.3525 71.512C62.1312 71.512 62.8298 71.304 63.4485 70.888C64.0672 70.472 64.5525 69.9227 64.9045 69.24C65.2672 68.5573 65.4485 67.8107 65.4485 67C65.4485 66.168 65.2618 65.4107 64.8885 64.728C64.5258 64.0347 64.0298 63.4853 63.4005 63.08C62.7818 62.664 62.0992 62.456 61.3525 62.456C60.5845 62.456 59.8912 62.664 59.2725 63.08C58.6538 63.496 58.1632 64.0507 57.8005 64.744C57.4378 65.4373 57.2565 66.1893 57.2565 67C57.2565 67.8427 57.4432 68.6053 57.8165 69.288C58.1898 69.9707 58.6858 70.5147 59.3045 70.92C59.9338 71.3147 60.6165 71.512 61.3525 71.512Z" fill="white"/>
<path d="M71.0507 75V51H74.9547V75H71.0507ZM90.5235 59H94.4275V75H90.5075L90.3475 73.016C89.8995 73.7307 89.3128 74.312 88.5875 74.76C87.8728 75.1973 87.0302 75.416 86.0595 75.416C84.8755 75.416 83.7662 75.192 82.7315 74.744C81.6968 74.296 80.7848 73.6773 79.9955 72.888C79.2062 72.0987 78.5928 71.1867 78.1555 70.152C77.7182 69.1173 77.4995 68.008 77.4995 66.824C77.4995 65.6827 77.7075 64.6107 78.1235 63.608C78.5395 62.6053 79.1262 61.7253 79.8835 60.968C80.6408 60.2107 81.5155 59.6187 82.5075 59.192C83.4995 58.7653 84.5662 58.552 85.7075 58.552C86.7742 58.552 87.7235 58.7867 88.5555 59.256C89.3982 59.7253 90.1128 60.3227 90.6995 61.048L90.5235 59ZM86.1715 71.656C87.0248 71.656 87.7662 71.4373 88.3955 71C89.0248 70.5627 89.4995 69.9813 89.8195 69.256C90.1502 68.52 90.2835 67.7093 90.2195 66.824C90.1448 65.992 89.8995 65.24 89.4835 64.568C89.0675 63.8853 88.5342 63.3413 87.8835 62.936C87.2328 62.5307 86.5022 62.328 85.6915 62.328C84.8488 62.328 84.0915 62.5467 83.4195 62.984C82.7582 63.4213 82.2462 64.008 81.8835 64.744C81.5208 65.4693 81.3768 66.28 81.4515 67.176C81.5368 67.9973 81.8035 68.7493 82.2515 69.432C82.6995 70.104 83.2648 70.6427 83.9475 71.048C84.6408 71.4533 85.3822 71.656 86.1715 71.656ZM104.86 58.552C106.417 58.552 107.836 58.9307 109.116 59.688C110.396 60.4453 111.414 61.464 112.172 62.744C112.929 64.0133 113.308 65.4213 113.308 66.968C113.308 68.1307 113.089 69.224 112.652 70.248C112.214 71.272 111.606 72.1733 110.828 72.952C110.06 73.72 109.164 74.3227 108.14 74.76C107.126 75.1973 106.033 75.416 104.86 75.416C103.857 75.416 102.966 75.192 102.188 74.744C101.42 74.2853 100.774 73.6933 100.252 72.968V75H96.3475V51H100.252V61C100.774 60.2747 101.42 59.688 102.188 59.24C102.966 58.7813 103.857 58.552 104.86 58.552ZM104.812 71.64C105.644 71.64 106.396 71.432 107.068 71.016C107.75 70.5893 108.294 70.024 108.7 69.32C109.105 68.616 109.308 67.832 109.308 66.968C109.308 66.1147 109.105 65.336 108.7 64.632C108.294 63.9173 107.75 63.352 107.068 62.936C106.385 62.52 105.633 62.312 104.812 62.312C104.001 62.312 103.276 62.5253 102.636 62.952C101.996 63.368 101.494 63.9333 101.132 64.648C100.769 65.352 100.588 66.1253 100.588 66.968C100.588 67.832 100.769 68.6213 101.132 69.336C101.494 70.04 101.996 70.6 102.636 71.016C103.276 71.432 104.001 71.64 104.812 71.64Z" fill="#FF677E"/>
</svg>
